<svg xmlns="http://www.w3.org/2000/svg" xmlns:xlink="http://www.w3.org/1999/xlink" width="500" zoomAndPan="magnify" viewBox="0 0 375 374.999991" height="500" preserveAspectRatio="xMidYMid meet" version="1.0"><defs><g/><clipPath id="949f259d1e"><path d="M 170 74 L 192 74 L 192 87 L 170 87 Z M 170 74 " clip-rule="nonzero"/></clipPath><clipPath id="36211a7fe6"><path d="M 169.402344 80.964844 L 190.691406 73.835938 L 192.9375 80.539062 L 171.648438 87.667969 Z M 169.402344 80.964844 " clip-rule="nonzero"/></clipPath><clipPath id="2996bf4933"><path d="M 172.753906 79.84375 L 187.339844 74.960938 C 188.230469 74.660156 189.199219 74.730469 190.039062 75.148438 C 190.878906 75.566406 191.515625 76.300781 191.816406 77.1875 C 192.113281 78.078125 192.042969 79.046875 191.625 79.886719 C 191.207031 80.726562 190.472656 81.363281 189.585938 81.660156 L 175 86.546875 C 174.109375 86.84375 173.140625 86.777344 172.300781 86.359375 C 171.460938 85.941406 170.824219 85.207031 170.527344 84.316406 C 170.230469 83.429688 170.296875 82.457031 170.714844 81.617188 C 171.132812 80.78125 171.867188 80.140625 172.753906 79.84375 Z M 172.753906 79.84375 " clip-rule="nonzero"/></clipPath><clipPath id="f003690cd3"><path d="M 179 74 L 203 74 L 203 84 L 179 84 Z M 179 74 " clip-rule="nonzero"/></clipPath><clipPath id="909aadc3bf"><path d="M 179.417969 77.117188 L 201.722656 74.585938 L 202.519531 81.609375 L 180.210938 84.140625 Z M 179.417969 77.117188 " clip-rule="nonzero"/></clipPath><clipPath id="7b1e582b60"><path d="M 182.929688 76.71875 L 198.210938 74.984375 C 199.144531 74.878906 200.078125 75.148438 200.8125 75.734375 C 201.546875 76.316406 202.015625 77.167969 202.121094 78.097656 C 202.226562 79.03125 201.957031 79.964844 201.375 80.699219 C 200.789062 81.433594 199.9375 81.902344 199.007812 82.007812 L 183.722656 83.742188 C 182.792969 83.847656 181.859375 83.578125 181.125 82.996094 C 180.390625 82.410156 179.917969 81.558594 179.8125 80.628906 C 179.707031 79.695312 179.976562 78.761719 180.5625 78.027344 C 181.144531 77.292969 181.996094 76.824219 182.929688 76.71875 Z M 182.929688 76.71875 " clip-rule="nonzero"/></clipPath><clipPath id="92de7d2330"><path d="M 140 281 L 148 281 L 148 289 L 140 289 Z M 140 281 " clip-rule="nonzero"/></clipPath><clipPath id="d83dcfcea5"><path d="M 139.792969 281.714844 L 147.222656 281.027344 L 147.875 288.066406 L 140.449219 288.753906 Z M 139.792969 281.714844 " clip-rule="nonzero"/></clipPath><clipPath id="77f7d75934"><path d="M 143.3125 281.390625 L 143.703125 281.351562 C 144.636719 281.265625 145.566406 281.554688 146.285156 282.152344 C 147.007812 282.75 147.460938 283.613281 147.546875 284.546875 C 147.636719 285.480469 147.347656 286.410156 146.75 287.128906 C 146.148438 287.851562 145.289062 288.304688 144.355469 288.390625 L 143.96875 288.425781 C 143.035156 288.515625 142.105469 288.226562 141.382812 287.628906 C 140.660156 287.027344 140.207031 286.167969 140.121094 285.234375 C 140.035156 284.300781 140.324219 283.371094 140.921875 282.652344 C 141.519531 281.929688 142.378906 281.476562 143.3125 281.390625 Z M 143.3125 281.390625 " clip-rule="nonzero"/></clipPath><clipPath id="36dc8833d2"><path d="M 139 283 L 147 283 L 147 291 L 139 291 Z M 139 283 " clip-rule="nonzero"/></clipPath><clipPath id="2068303379"><path d="M 139.042969 283.515625 L 146.472656 282.828125 L 147.125 289.863281 L 139.699219 290.554688 Z M 139.042969 283.515625 " clip-rule="nonzero"/></clipPath><clipPath id="74d8e283c8"><path d="M 142.5625 283.1875 L 142.953125 283.152344 C 143.886719 283.066406 144.816406 283.355469 145.535156 283.953125 C 146.257812 284.550781 146.710938 285.410156 146.796875 286.34375 C 146.886719 287.277344 146.597656 288.207031 146 288.929688 C 145.398438 289.652344 144.539062 290.105469 143.605469 290.191406 L 143.21875 290.226562 C 142.285156 290.3125 141.355469 290.027344 140.632812 289.425781 C 139.910156 288.828125 139.457031 287.96875 139.371094 287.035156 C 139.285156 286.101562 139.574219 285.171875 140.171875 284.449219 C 140.769531 283.730469 141.628906 283.277344 142.5625 283.1875 Z M 142.5625 283.1875 " clip-rule="nonzero"/></clipPath><clipPath id="ac24a7371d"><path d="M 138 283 L 147 283 L 147 291 L 138 291 Z M 138 283 " clip-rule="nonzero"/></clipPath><clipPath id="59173b84a9"><path d="M 138.292969 284.265625 L 145.722656 283.578125 L 146.375 290.613281 L 138.949219 291.304688 Z M 138.292969 284.265625 " clip-rule="nonzero"/></clipPath><clipPath id="48a163e154"><path d="M 141.8125 283.9375 L 142.203125 283.902344 C 143.136719 283.816406 144.066406 284.105469 144.785156 284.703125 C 145.507812 285.300781 145.960938 286.160156 146.046875 287.09375 C 146.136719 288.027344 145.847656 288.957031 145.25 289.679688 C 144.648438 290.402344 143.789062 290.855469 142.855469 290.941406 L 142.46875 290.976562 C 141.535156 291.0625 140.605469 290.777344 139.882812 290.175781 C 139.160156 289.578125 138.707031 288.71875 138.621094 287.785156 C 138.535156 286.851562 138.824219 285.921875 139.421875 285.199219 C 140.019531 284.480469 140.878906 284.027344 141.8125 283.9375 Z M 141.8125 283.9375 " clip-rule="nonzero"/></clipPath><clipPath id="24dc44442c"><path d="M 137 285 L 146 285 L 146 293 L 137 293 Z M 137 285 " clip-rule="nonzero"/></clipPath><clipPath id="ef454f58f4"><path d="M 137.40625 285.578125 L 144.832031 284.890625 L 145.484375 291.929688 L 138.058594 292.617188 Z M 137.40625 285.578125 " clip-rule="nonzero"/></clipPath><clipPath id="873a354ac5"><path d="M 140.921875 285.253906 L 141.3125 285.214844 C 142.246094 285.128906 143.175781 285.417969 143.898438 286.015625 C 144.617188 286.613281 145.070312 287.476562 145.160156 288.410156 C 145.246094 289.34375 144.957031 290.273438 144.359375 290.992188 C 143.757812 291.714844 142.898438 292.167969 141.964844 292.253906 L 141.578125 292.289062 C 140.644531 292.378906 139.714844 292.089844 138.992188 291.492188 C 138.269531 290.890625 137.816406 290.03125 137.730469 289.097656 C 137.644531 288.164062 137.933594 287.234375 138.53125 286.515625 C 139.128906 285.792969 139.992188 285.339844 140.921875 285.253906 Z M 140.921875 285.253906 " clip-rule="nonzero"/></clipPath><clipPath id="1a6fcb738f"><path d="M 133 287 L 142 287 L 142 295 L 133 295 Z M 133 287 " clip-rule="nonzero"/></clipPath><clipPath id="6317ec1d1c"><path d="M 133.363281 287.378906 L 140.792969 286.691406 L 141.445312 293.726562 L 134.015625 294.417969 Z M 133.363281 287.378906 " clip-rule="nonzero"/></clipPath><clipPath id="6129fb8b41"><path d="M 136.882812 287.050781 L 137.273438 287.015625 C 138.207031 286.929688 139.136719 287.21875 139.855469 287.816406 C 140.578125 288.414062 141.03125 289.277344 141.117188 290.210938 C 141.203125 291.140625 140.917969 292.070312 140.316406 292.792969 C 139.71875 293.515625 138.859375 293.96875 137.925781 294.054688 L 137.535156 294.089844 C 136.601562 294.175781 135.671875 293.890625 134.953125 293.292969 C 134.230469 292.691406 133.777344 291.832031 133.691406 290.898438 C 133.605469 289.964844 133.890625 289.035156 134.492188 288.3125 C 135.089844 287.59375 135.949219 287.140625 136.882812 287.050781 Z M 136.882812 287.050781 " clip-rule="nonzero"/></clipPath></defs><g fill="#000000" fill-opacity="1"><g transform="translate(65.690554, 214.18612)"><g><path d="M 132.828125 -133.5 C 133.953125 -133.5 134.515625 -131.703125 134.515625 -128.109375 C 134.515625 -124.285156 134.007812 -120.351562 133 -116.3125 C 131.988281 -112.269531 131.035156 -110.582031 130.140625 -111.25 C 122.941406 -116.195312 114.625 -118.894531 105.1875 -119.34375 C 110.351562 -112.832031 112.9375 -104.742188 112.9375 -95.078125 C 112.9375 -90.578125 112.488281 -86.53125 111.59375 -82.9375 C 108.445312 -67.875 101.140625 -55.789062 89.671875 -46.6875 C 78.210938 -37.59375 65.628906 -33.046875 51.921875 -33.046875 C 48.992188 -33.046875 46.859375 -33.15625 45.515625 -33.375 C 44.160156 -30.675781 43.484375 -28.539062 43.484375 -26.96875 C 42.816406 -21.351562 44.785156 -16.691406 49.390625 -12.984375 C 53.992188 -9.273438 61.46875 -4.832031 71.8125 0.34375 C 80.570312 4.613281 87.59375 8.375 92.875 11.625 C 98.164062 14.882812 102.71875 19.097656 106.53125 24.265625 C 110.351562 29.441406 112.265625 35.625 112.265625 42.8125 C 112.265625 53.15625 108.78125 62.257812 101.8125 70.125 C 94.84375 77.988281 85.628906 84.054688 74.171875 88.328125 C 62.710938 92.597656 50.347656 94.734375 37.078125 94.734375 C 20.671875 94.734375 7.75 91.53125 -1.6875 85.125 C -11.125 78.71875 -15.84375 70.679688 -15.84375 61.015625 C -15.84375 52.023438 -11.910156 43.65625 -4.046875 35.90625 C 3.816406 28.15625 15.054688 20.34375 29.671875 12.46875 C 21.578125 7.082031 17.53125 1.351562 17.53125 -4.71875 C 17.53125 -9.4375 19.441406 -14.15625 23.265625 -18.875 C 27.085938 -23.59375 32.59375 -28.875 39.78125 -34.71875 C 31.914062 -36.96875 25.847656 -41.40625 21.578125 -48.03125 C 17.304688 -54.664062 15.171875 -62.367188 15.171875 -71.140625 C 15.171875 -73.609375 15.617188 -77.539062 16.515625 -82.9375 C 19.210938 -97.09375 26.179688 -108.832031 37.421875 -118.15625 C 48.660156 -127.488281 61.472656 -132.15625 75.859375 -132.15625 C 85.523438 -132.15625 93.390625 -129.796875 99.453125 -125.078125 C 111.367188 -130.691406 122.492188 -133.5 132.828125 -133.5 Z M 82.265625 -79.90625 C 82.710938 -84.394531 82.9375 -87.988281 82.9375 -90.6875 C 82.9375 -100.125 81.695312 -108.210938 79.21875 -114.953125 C 76.75 -121.703125 72.929688 -125.078125 67.765625 -125.078125 C 62.816406 -125.078125 58.207031 -121.253906 53.9375 -113.609375 C 49.664062 -105.972656 46.96875 -96.535156 45.84375 -85.296875 C 45.394531 -79.898438 45.171875 -76.078125 45.171875 -73.828125 C 45.171875 -63.941406 46.628906 -55.90625 49.546875 -49.71875 C 52.472656 -43.539062 56.1875 -40.453125 60.6875 -40.453125 C 65.632812 -40.453125 70.1875 -44.101562 74.34375 -51.40625 C 78.5 -58.71875 81.140625 -68.21875 82.265625 -79.90625 Z M 84.625 58.65625 C 84.625 50.34375 81.476562 43.601562 75.1875 38.4375 C 68.894531 33.269531 59.789062 27.765625 47.875 21.921875 C 42.925781 19.890625 38.429688 17.640625 34.390625 15.171875 C 21.128906 25.734375 14.5 37.644531 14.5 50.90625 C 14.5 60.570312 18.316406 68.550781 25.953125 74.84375 C 33.597656 81.132812 43.039062 84.28125 54.28125 84.28125 C 64.613281 84.28125 72.253906 81.75 77.203125 76.6875 C 82.148438 71.632812 84.625 65.625 84.625 58.65625 Z M 84.625 58.65625 "/></g></g></g><g fill="#000000" fill-opacity="1"><g transform="translate(131.114425, 290.515081)"><g><path d="M 84.625 1.34375 C 79.226562 1.34375 72.9375 1.007812 65.75 0.34375 C 63.050781 0.113281 59.675781 -0.109375 55.625 -0.328125 C 51.582031 -0.554688 46.976562 -0.671875 41.8125 -0.671875 L 19.546875 -0.34375 C 15.953125 -0.113281 10.898438 0 4.390625 0 C 3.710938 0 3.375 -0.671875 3.375 -2.015625 C 3.375 -3.367188 3.710938 -4.046875 4.390625 -4.046875 C 10.679688 -4.046875 15.34375 -4.609375 18.375 -5.734375 C 21.40625 -6.859375 23.707031 -8.992188 25.28125 -12.140625 C 26.851562 -15.285156 28.316406 -20.34375 29.671875 -27.3125 L 57.3125 -183.40625 C 58.207031 -189.25 58.65625 -192.957031 58.65625 -194.53125 C 58.65625 -199.25 57.304688 -202.453125 54.609375 -204.140625 C 51.921875 -205.828125 47.203125 -206.671875 40.453125 -206.671875 C 40.003906 -206.671875 39.78125 -207.34375 39.78125 -208.6875 C 39.78125 -210.039062 40.003906 -210.71875 40.453125 -210.71875 L 56.296875 -210.375 C 65.285156 -209.925781 72.703125 -209.703125 78.546875 -209.703125 C 84.847656 -209.703125 91.367188 -210.039062 98.109375 -210.71875 C 107.097656 -211.164062 113.613281 -211.390625 117.65625 -211.390625 C 136.539062 -211.390625 153.0625 -207.960938 167.21875 -201.109375 C 181.382812 -194.253906 192.226562 -184.585938 199.75 -172.109375 C 207.28125 -159.640625 211.046875 -145.195312 211.046875 -128.78125 C 211.046875 -121.363281 210.484375 -114.734375 209.359375 -108.890625 C 205.546875 -87.316406 197.285156 -68.15625 184.578125 -51.40625 C 171.878906 -34.664062 156.648438 -21.6875 138.890625 -12.46875 C 121.140625 -3.257812 103.050781 1.34375 84.625 1.34375 Z M 83.28125 -5.390625 C 104.851562 -5.390625 123.5625 -13.875 139.40625 -30.84375 C 155.25 -47.8125 165.867188 -71.359375 171.265625 -101.484375 C 172.835938 -110.242188 173.625 -119.679688 173.625 -129.796875 C 173.625 -151.597656 168.90625 -169.519531 159.46875 -183.5625 C 150.03125 -197.613281 135.082031 -204.640625 114.625 -204.640625 C 106.53125 -204.640625 100.796875 -203.007812 97.421875 -199.75 C 94.054688 -196.5 91.703125 -190.828125 90.359375 -182.734375 L 63.375 -31.015625 C 62.707031 -27.421875 62.375 -24.273438 62.375 -21.578125 C 62.375 -15.960938 63.945312 -11.859375 67.09375 -9.265625 C 70.238281 -6.679688 75.632812 -5.390625 83.28125 -5.390625 Z M 83.28125 -5.390625 "/></g></g></g><g clip-path="url(#949f259d1e)"><g clip-path="url(#36211a7fe6)"><g clip-path="url(#2996bf4933)"><path fill="#ffffff" d="M 169.402344 80.964844 L 190.691406 73.835938 L 192.9375 80.539062 L 171.648438 87.667969 Z M 169.402344 80.964844 " fill-opacity="1" fill-rule="nonzero"/></g></g></g><g clip-path="url(#f003690cd3)"><g clip-path="url(#909aadc3bf)"><g clip-path="url(#7b1e582b60)"><path fill="#ffffff" d="M 179.417969 77.117188 L 201.722656 74.585938 L 202.519531 81.609375 L 180.210938 84.140625 Z M 179.417969 77.117188 " fill-opacity="1" fill-rule="nonzero"/></g></g></g><g clip-path="url(#92de7d2330)"><g clip-path="url(#d83dcfcea5)"><g clip-path="url(#77f7d75934)"><path fill="#ffffff" d="M 139.792969 281.714844 L 147.222656 281.027344 L 147.875 288.066406 L 140.449219 288.753906 Z M 139.792969 281.714844 " fill-opacity="1" fill-rule="nonzero"/></g></g></g><g clip-path="url(#36dc8833d2)"><g clip-path="url(#2068303379)"><g clip-path="url(#74d8e283c8)"><path fill="#ffffff" d="M 139.042969 283.515625 L 146.472656 282.828125 L 147.125 289.863281 L 139.699219 290.554688 Z M 139.042969 283.515625 " fill-opacity="1" fill-rule="nonzero"/></g></g></g><g clip-path="url(#ac24a7371d)"><g clip-path="url(#59173b84a9)"><g clip-path="url(#48a163e154)"><path fill="#ffffff" d="M 138.292969 284.265625 L 145.722656 283.578125 L 146.375 290.613281 L 138.949219 291.304688 Z M 138.292969 284.265625 " fill-opacity="1" fill-rule="nonzero"/></g></g></g><g clip-path="url(#24dc44442c)"><g clip-path="url(#ef454f58f4)"><g clip-path="url(#873a354ac5)"><path fill="#ffffff" d="M 137.40625 285.578125 L 144.832031 284.890625 L 145.484375 291.929688 L 138.058594 292.617188 Z M 137.40625 285.578125 " fill-opacity="1" fill-rule="nonzero"/></g></g></g><g clip-path="url(#1a6fcb738f)"><g clip-path="url(#6317ec1d1c)"><g clip-path="url(#6129fb8b41)"><path fill="#ffffff" d="M 133.363281 287.378906 L 140.792969 286.691406 L 141.445312 293.726562 L 134.015625 294.417969 Z M 133.363281 287.378906 " fill-opacity="1" fill-rule="nonzero"/></g></g></g></svg>